<svg width="1000" height="500" viewBox="0 0 1000 500" fill="none" xmlns="http://www.w3.org/2000/svg">
<path d="M111.5 405H887.5M198 429.5H793" stroke="black" stroke-width="3"/>
<path fill-rule="evenodd" clip-rule="evenodd" d="M609.617 219.633C613.761 217.497 619.873 215.412 625.687 215.663C628.797 215.797 631.844 216.601 634.452 218.446C637.066 220.295 639.201 223.16 640.529 227.349C642.208 232.642 640.975 237.638 638.469 241.633C635.969 245.618 632.183 248.643 628.674 250.028C626.92 250.719 625.198 251.016 623.72 250.782C622.221 250.544 620.979 249.757 620.269 248.324C619.572 246.916 619.421 244.953 619.923 242.408C620.426 239.857 621.596 236.67 623.609 232.771L624.497 233.229C622.51 237.08 621.383 240.174 620.904 242.602C620.423 245.036 620.604 246.748 621.165 247.88C621.713 248.985 622.654 249.6 623.876 249.794C625.119 249.991 626.654 249.749 628.307 249.097C631.61 247.794 635.231 244.913 637.621 241.102C640.006 237.3 641.148 232.608 639.576 227.651C638.304 223.64 636.286 220.968 633.875 219.263C631.46 217.555 628.613 216.79 625.644 216.662C619.777 216.409 613.52 218.645 609.475 220.839L596.429 266H500.053V76H500.553C548.525 76 576.638 101.222 592.311 131.898C607.753 162.123 611.132 197.654 609.617 219.633ZM608.558 220.411L595.677 265H568.445L597.784 151.125L596.816 150.875L567.412 265H533.879L558.295 98.5726L557.305 98.4274L532.868 265H501.053V77.0009C548.276 77.1753 575.939 102.052 591.42 132.352C606.96 162.768 610.211 198.638 608.558 220.411Z" fill="black"/>
<path fill-rule="evenodd" clip-rule="evenodd" d="M390.683 219.633C386.539 217.497 380.427 215.412 374.613 215.663C371.503 215.797 368.456 216.601 365.848 218.446C363.234 220.295 361.099 223.16 359.771 227.349C358.092 232.642 359.325 237.638 361.831 241.633C364.331 245.618 368.117 248.643 371.626 250.028C373.38 250.719 375.103 251.016 376.58 250.782C378.079 250.544 379.321 249.757 380.031 248.324C380.728 246.916 380.879 244.953 380.377 242.408C379.874 239.857 378.704 236.67 376.692 232.771L375.803 233.229C377.79 237.08 378.917 240.174 379.396 242.602C379.877 245.036 379.696 246.748 379.135 247.88C378.587 248.985 377.646 249.6 376.424 249.794C375.181 249.991 373.646 249.749 371.993 249.097C368.69 247.794 365.069 244.913 362.679 241.102C360.294 237.3 359.152 232.608 360.724 227.651C361.996 223.64 364.014 220.968 366.425 219.263C368.84 217.555 371.687 216.79 374.656 216.662C380.523 216.409 386.78 218.645 390.825 220.839L403.871 266H500.247V76H499.747C451.775 76 423.662 101.222 407.989 131.898C392.547 162.123 389.168 197.654 390.683 219.633ZM391.742 220.411L404.623 265H431.855L402.516 151.125L403.484 150.875L432.888 265H466.421L442.005 98.5726L442.995 98.4274L467.432 265H499.247V77.0009C452.024 77.1753 424.361 102.052 408.88 132.352C393.34 162.768 390.089 198.638 391.742 220.411Z" fill="black"/>
<path d="M500 314.5H589.8V290H500V289H596.8V271.5H500V270.5H597.8V290H590.8M500.3 314.5H410.5V290H500.3V289H403.5V271.5H500.3V270.5H402.5V290H409.5M595.677 265L608.558 220.411C610.211 198.638 606.96 162.768 591.42 132.352C575.939 102.052 548.276 77.1753 501.053 77.0009V265H532.868L557.305 98.4274L558.295 98.5726L533.879 265H567.412L596.816 150.875L597.784 151.125L568.445 265H595.677ZM609.617 219.633C613.761 217.497 619.873 215.412 625.687 215.663C628.797 215.797 631.844 216.601 634.452 218.446C637.066 220.295 639.201 223.16 640.529 227.349C642.208 232.642 640.975 237.638 638.469 241.633C635.969 245.618 632.183 248.643 628.674 250.028C626.92 250.719 625.198 251.016 623.72 250.782C622.221 250.544 620.979 249.757 620.269 248.324C619.572 246.916 619.421 244.953 619.923 242.408C620.426 239.857 621.596 236.67 623.609 232.771L624.497 233.229C622.51 237.08 621.383 240.174 620.904 242.602C620.423 245.036 620.604 246.748 621.165 247.88C621.713 248.985 622.654 249.6 623.876 249.794C625.119 249.991 626.654 249.749 628.307 249.097C631.61 247.794 635.231 244.913 637.621 241.102C640.006 237.3 641.148 232.608 639.576 227.651C638.304 223.64 636.286 220.968 633.875 219.263C631.46 217.555 628.613 216.79 625.644 216.662C619.777 216.409 613.52 218.645 609.475 220.839L596.429 266H500.053V76H500.553C548.525 76 576.638 101.222 592.311 131.898C607.753 162.123 611.132 197.654 609.617 219.633ZM404.623 265L391.742 220.411C390.089 198.638 393.34 162.768 408.88 132.352C424.361 102.052 452.024 77.1753 499.247 77.0009V265H467.432L442.995 98.4274L442.005 98.5726L466.421 265H432.888L403.484 150.875L402.516 151.125L431.855 265H404.623ZM390.683 219.633C386.539 217.497 380.427 215.412 374.613 215.663C371.503 215.797 368.456 216.601 365.848 218.446C363.234 220.295 361.099 223.16 359.771 227.349C358.092 232.642 359.325 237.638 361.831 241.633C364.331 245.618 368.117 248.643 371.626 250.028C373.38 250.719 375.103 251.016 376.58 250.782C378.079 250.544 379.321 249.757 380.031 248.324C380.728 246.916 380.879 244.953 380.377 242.408C379.874 239.857 378.704 236.67 376.692 232.771L375.803 233.229C377.79 237.08 378.917 240.174 379.396 242.602C379.877 245.036 379.696 246.748 379.135 247.88C378.587 248.985 377.646 249.6 376.424 249.794C375.181 249.991 373.646 249.749 371.993 249.097C368.69 247.794 365.069 244.913 362.679 241.102C360.294 237.3 359.152 232.608 360.724 227.651C361.996 223.64 364.014 220.968 366.425 219.263C368.84 217.555 371.687 216.79 374.656 216.662C380.523 216.409 386.78 218.645 390.825 220.839L403.871 266H500.247V76H499.747C451.775 76 423.662 101.222 407.989 131.898C392.547 162.123 389.168 197.654 390.683 219.633Z" stroke="black" stroke-width="5"/>
<path d="M110.1 394V324H161.9V333.2H120.6V354.7H147.8V363.6H120.6V394H110.1ZM200.612 395.1C194.545 395.1 189.278 393.833 184.812 391.3C180.345 388.767 176.912 385.2 174.512 380.6C172.112 375.933 170.912 370.433 170.912 364.1V324H181.412V364.1C181.412 368.433 182.178 372.2 183.712 375.4C185.312 378.6 187.545 381.067 190.412 382.8C193.345 384.533 196.745 385.4 200.612 385.4C204.612 385.4 208.045 384.533 210.912 382.8C213.778 381.067 215.978 378.6 217.512 375.4C219.112 372.2 219.912 368.433 219.912 364.1V324H230.412V364.1C230.412 370.433 229.178 375.933 226.712 380.6C224.312 385.2 220.878 388.767 216.412 391.3C211.945 393.833 206.678 395.1 200.612 395.1ZM243.401 394V324H275.101C279.767 324 283.834 324.867 287.301 326.6C290.834 328.333 293.567 330.767 295.501 333.9C297.501 336.967 298.501 340.567 298.501 344.7C298.501 349.3 297.201 353.267 294.601 356.6C292.001 359.933 288.501 362.333 284.101 363.8L299.701 394H288.101L273.601 365.3H253.901V394H243.401ZM253.901 356.5H274.301C278.434 356.5 281.734 355.467 284.201 353.4C286.734 351.267 288.001 348.4 288.001 344.8C288.001 341.333 286.734 338.533 284.201 336.4C281.734 334.267 278.434 333.2 274.301 333.2H253.901V356.5ZM309.319 394V324H319.519L358.619 376V324H368.519V394H359.319L319.319 340.4V394H309.319ZM382.854 394V324H393.354V394H382.854ZM426.859 394V333.3H402.259V324H461.959V333.3H437.359V394H426.859ZM499.245 395.1C493.178 395.1 487.911 393.833 483.445 391.3C478.978 388.767 475.545 385.2 473.145 380.6C470.745 375.933 469.545 370.433 469.545 364.1V324H480.045V364.1C480.045 368.433 480.811 372.2 482.345 375.4C483.945 378.6 486.178 381.067 489.045 382.8C491.978 384.533 495.378 385.4 499.245 385.4C503.245 385.4 506.678 384.533 509.545 382.8C512.411 381.067 514.611 378.6 516.145 375.4C517.745 372.2 518.545 368.433 518.545 364.1V324H529.045V364.1C529.045 370.433 527.811 375.933 525.345 380.6C522.945 385.2 519.511 388.767 515.045 391.3C510.578 393.833 505.311 395.1 499.245 395.1ZM542.034 394V324H573.734C578.4 324 582.467 324.867 585.934 326.6C589.467 328.333 592.2 330.767 594.134 333.9C596.134 336.967 597.134 340.567 597.134 344.7C597.134 349.3 595.834 353.267 593.234 356.6C590.634 359.933 587.134 362.333 582.734 363.8L598.334 394H586.734L572.234 365.3H552.534V394H542.034ZM552.534 356.5H572.934C577.067 356.5 580.367 355.467 582.834 353.4C585.367 351.267 586.634 348.4 586.634 344.8C586.634 341.333 585.367 338.533 582.834 336.4C580.367 334.267 577.067 333.2 572.934 333.2H552.534V356.5ZM607.952 394V324H659.552V333.2H618.452V354.2H645.452V363.1H618.452V384.8H659.952V394H607.952ZM691.643 394V324H702.143V354H739.343V324H749.843V394H739.343V363.5H702.143V394H691.643ZM792.604 395.1C786.537 395.1 781.271 393.833 776.804 391.3C772.337 388.767 768.904 385.2 766.504 380.6C764.104 375.933 762.904 370.433 762.904 364.1V324H773.404V364.1C773.404 368.433 774.171 372.2 775.704 375.4C777.304 378.6 779.537 381.067 782.404 382.8C785.337 384.533 788.737 385.4 792.604 385.4C796.604 385.4 800.037 384.533 802.904 382.8C805.771 381.067 807.971 378.6 809.504 375.4C811.104 372.2 811.904 368.433 811.904 364.1V324H822.404V364.1C822.404 370.433 821.171 375.933 818.704 380.6C816.304 385.2 812.871 388.767 808.404 391.3C803.937 393.833 798.671 395.1 792.604 395.1ZM835.393 394V324H865.693C870.293 324 874.293 324.767 877.693 326.3C881.093 327.833 883.726 330 885.593 332.8C887.46 335.533 888.393 338.767 888.393 342.5C888.393 345.9 887.526 348.9 885.793 351.5C884.06 354.1 881.626 356.167 878.493 357.7C882.426 359.1 885.493 361.233 887.693 364.1C889.96 366.9 891.093 370.2 891.093 374C891.093 378.067 890.093 381.6 888.093 384.6C886.16 387.6 883.36 389.933 879.693 391.6C876.093 393.2 871.86 394 866.993 394H835.393ZM845.893 353.7H865.093C869.026 353.7 872.16 352.767 874.493 350.9C876.826 349.033 877.993 346.5 877.993 343.3C877.993 340.1 876.826 337.567 874.493 335.7C872.16 333.833 869.026 332.9 865.093 332.9H845.893V353.7ZM845.893 385.1H866.193C870.593 385.1 874.06 384.067 876.593 382C879.193 379.933 880.493 377.133 880.493 373.6C880.493 370.133 879.193 367.367 876.593 365.3C874.06 363.167 870.593 362.1 866.193 362.1H845.893V385.1Z" fill="black"/>
</svg>
